<svg width="29" height="31" viewBox="0 0 29 31" fill="none" xmlns="http://www.w3.org/2000/svg">
<path fill-rule="evenodd" clip-rule="evenodd" d="M15.4688 0.259576C15.1742 0.0895246 14.8401 0 14.5 0C14.1599 0 13.8258 0.0895246 13.5312 0.259576L1.90625 7.19001C1.61172 7.36006 1.36714 7.60464 1.19709 7.89917C1.02704 8.19369 0.937509 8.52779 0.9375 8.86789V22.132C0.937509 22.4721 1.02704 22.8062 1.19709 23.1007C1.36714 23.3953 1.61172 23.6398 1.90625 23.8099L13.5312 30.7403C13.8258 30.9104 14.1599 30.9999 14.5 30.9999C14.8401 30.9999 15.1742 30.9104 15.4688 30.7403L27.0938 23.8099C27.3883 23.6398 27.6329 23.3953 27.8029 23.1007C27.973 22.8062 28.0625 22.4721 28.0625 22.132V8.86789C28.0625 8.52779 27.973 8.19369 27.8029 7.89917C27.6329 7.60464 27.3883 7.36006 27.0938 7.19001L15.4688 0.259576Z" fill="#5FAF2D"/>
</svg>
