<svg width="23" height="31" viewBox="0 0 23 31" fill="none" xmlns="http://www.w3.org/2000/svg">
<path d="M11.5 31C11.5 31 23 19.9834 23 11.625C23 8.54186 21.7884 5.58499 19.6317 3.40488C17.4751 1.22477 14.55 0 11.5 0C8.45001 0 5.52494 1.22477 3.36827 3.40488C1.2116 5.58499 4.54484e-08 8.54186 0 11.625C0 19.9834 11.5 31 11.5 31ZM11.5 17.4375C9.97501 17.4375 8.51247 16.8251 7.43414 15.7351C6.3558 14.645 5.75 13.1666 5.75 11.625C5.75 10.0834 6.3558 8.605 7.43414 7.51494C8.51247 6.42489 9.97501 5.8125 11.5 5.8125C13.025 5.8125 14.4875 6.42489 15.5659 7.51494C16.6442 8.605 17.25 10.0834 17.25 11.625C17.25 13.1666 16.6442 14.645 15.5659 15.7351C14.4875 16.8251 13.025 17.4375 11.5 17.4375Z" fill="#5FAF2D"/>
</svg>
